<?xml version="1.0" encoding="UTF-8"?>
<svg id="Layer_1" data-name="Layer 1" xmlns="http://www.w3.org/2000/svg" width="239.1397094727" height="218" viewBox="0 0 239.1397094727 218">
  <path d="M235.1397094727,109h-54.8255615234c-5.2467041016,0-9.5-4.2532958984-9.5-9.5l-.0000610352-95.5c0-2.2091674805-1.7908325195-4-4-4h-26.1628417969c-2.2091064453,0-4,1.7908325195-4,4v95.5c0,5.2467041016-4.2532958984,9.5-9.5,9.5h-15.162902832c-5.2462768555,0-9.4993286133-4.252746582-9.4999389648-9.4987792969V4c0-2.2091674805-1.7908325195-4-4-4h-26.1628417969c-2.2091064453,0-4,1.7908325195-4,4l-.0000610352,95.5c0,5.2467041016-4.2532958984,9.5-9.5,9.5H4c-2.2091674805,0-4,1.7908325195-4,4v101c0,2.2091674805,1.7908325195,4,4,4h60.3255615234c2.2091674805,0,4-1.7908325195,4-4v-95.5012207031c.0006103516-5.2460327148,4.2536621094-9.4987792969,9.4999389648-9.4987792969h15.162902832c5.2467041016,0,9.5,4.2532958984,9.5,9.5v95.5c0,2.2091674805,1.7908935547,4,4,4h26.1628417969c2.2091674805,0,4-1.7908325195,4-4v-95.5c0-5.2467041016,4.2532958984-9.5,9.5-9.5h15.162902832c5.2462768555,0,9.4993286133,4.252746582,9.4999389648,9.4987792969v95.5012207031c0,2.2091674805,1.7908935547,4,4,4h60.3256225586c2.2091064453,0,4-1.7908325195,4-4v-101c0-2.2091674805-1.7908935547-4-4-4Z"/>
</svg>