<svg xmlns="http://www.w3.org/2000/svg" fill="none" viewBox="0 0 24 24" id="Optimizely-Icon--Streamline-Svg-Logos" height="24" width="24">
  <desc>
    Optimizely Icon Streamline Icon: https://streamlinehq.com
  </desc>
  <path fill="#3be081" d="M8.076175 13.109425v2.73455c2.0865 -0.002425 4.086825 -0.80695 5.562225 -2.237075 1.475375 -1.43015 2.3053 -3.3691 2.307875 -5.391575H13.125125c-0.00165 1.297475 -0.53415 2.5414 -1.480625 3.45885 -0.9465 0.917475 -2.229775 1.4336 -3.568325 1.43525Z" stroke-width="0.25"></path>
  <path fill="#0037ff" d="M8.0754 20.64195c-1.328925 0 -2.6034 -0.51175 -3.543075 -1.4226 -0.939675 -0.91085 -1.4676 -2.146225 -1.4676 -3.434375 0 -1.2882 0.527925 -2.523525 1.4676 -3.43445 0.939675 -0.91085 2.21415 -1.422575 3.543075 -1.422575V8.2135c-1.0262 -0.001375 -2.0426 0.1931 -2.991225 0.572475 -0.948625 0.3793 -1.810875 0.9361 -2.537525 1.638425 -0.72666 0.702325 -1.3034825 1.536575 -1.69754 2.455 -0.394055 0.918475 -0.5976275 1.90315 -0.5991025 2.897825 -0.0014575 0.9947 0.1992125 1.979925 0.59056 2.8995 0.39135 0.9195 0.96571 1.7553 1.6902825 2.4597 0.7246 0.704325 1.5852 1.2635 2.5327 1.645425 0.947525 0.381975 1.96335 0.57935 2.98955 0.58075h0.0223V20.64195Z" stroke-width="0.25"></path>
  <path fill="#00CCFF" d="M8.076175 20.641925v2.71445c2.072475 0 4.060075 -0.798 5.5255 -2.2185 1.46545 -1.4205 2.28875 -3.347125 2.28875 -5.356025H13.0869c-0.00085 1.28815 -0.528925 2.523425 -1.468375 3.434575 -0.939375 0.91115 -2.213375 1.42385 -3.54235 1.4255Z" stroke-width="0.25"></path>
  <path fill="#861dff" d="M8.076175 5.4974v2.714425c2.072475 0 4.060075 -0.797975 5.5255 -2.2185 1.46545 -1.4205 2.28875 -3.3471 2.28875 -5.355995H13.0869c-0.00085 1.288185 -0.528925 2.52342 -1.468375 3.434595 -0.939375 0.911175 -2.213375 1.423825 -3.54235 1.425475Z" stroke-width="0.25"></path>
  <path fill="#ff8110" d="M15.9358 5.4974v2.714425c2.07245 0 4.06 -0.797975 5.52545 -2.2185 1.4655 -1.4205 2.288725 -3.3471 2.288725 -5.355995H20.94805c-0.00085 1.2884475 -0.529175 2.52392 -1.468925 3.435145 -0.93975 0.9112 -2.2141 1.4237 -3.543325 1.424925Z" stroke-width="0.25"></path>
</svg>