<svg width="680" height="680" viewBox="0 0 680 680" fill="none" xmlns="http://www.w3.org/2000/svg">
<rect width="680" height="680" rx="340" fill="#0000FF"/>
<path d="M228.084 207.427C216.965 199.294 203.843 194.428 190.166 193.366C176.489 192.304 162.788 195.087 150.574 201.408C138.36 207.73 128.108 217.344 120.948 229.19C113.789 241.036 110 254.654 110 268.541C110 282.429 113.789 296.047 120.948 307.893C128.108 319.739 138.36 329.353 150.574 335.674C162.788 341.995 176.489 344.778 190.166 343.717C203.843 342.655 216.965 337.789 228.084 329.656V338.45H259.02V198.639H228.084V207.427ZM184.549 312.631C175.939 312.631 167.521 310.046 160.362 305.202C153.203 300.359 147.623 293.476 144.328 285.422C141.033 277.368 140.171 268.506 141.85 259.956C143.53 251.406 147.677 243.553 153.765 237.389C159.854 231.225 167.611 227.027 176.056 225.326C184.501 223.626 193.254 224.499 201.209 227.834C209.164 231.17 215.963 236.82 220.747 244.068C225.531 251.316 228.084 259.838 228.084 268.555C228.07 280.239 223.478 291.44 215.316 299.7C207.154 307.961 196.089 312.606 184.549 312.617V312.631ZM269.477 385.712C228.958 385.712 197.213 418.834 197.213 461.108C197.215 476.89 202.109 492.274 211.204 505.091C220.299 517.909 233.138 527.514 247.91 532.553C262.683 537.592 278.645 537.812 293.547 533.18C308.449 528.549 321.541 519.3 330.976 506.738L303.293 491.425C298.225 496.839 291.883 500.863 284.861 503.12C277.838 505.377 270.365 505.793 263.141 504.329C255.916 502.865 249.177 499.568 243.554 494.749C237.93 489.929 233.607 483.744 230.988 476.772H341.734V461.108C341.734 418.82 309.997 385.698 269.477 385.698V385.712ZM230.642 445.431C236.313 428.495 251.139 417.012 269.477 417.012C287.815 417.012 302.634 428.495 308.312 445.431H230.642ZM356.617 224.466C363.312 224.455 369.918 226.014 375.918 229.021C381.918 232.027 387.149 236.399 391.201 241.793L419.203 227.704C410.492 214.018 397.638 203.554 382.564 197.878C367.49 192.202 351.007 191.619 335.579 196.216C320.15 200.813 306.606 210.343 296.973 223.38C287.339 236.418 282.132 252.262 282.132 268.545C282.132 284.827 287.339 300.672 296.973 313.709C306.606 326.747 320.15 336.277 335.579 340.874C351.007 345.47 367.49 344.887 382.564 339.211C397.638 333.535 410.492 323.072 419.203 309.385L391.201 295.289C386.706 301.245 380.785 305.942 373.998 308.936C367.211 311.929 359.781 313.121 352.412 312.397C345.044 311.674 337.979 309.06 331.886 304.802C325.793 300.544 320.873 294.783 317.592 288.064C314.311 281.345 312.777 273.89 313.136 266.403C313.494 258.917 315.732 251.646 319.638 245.28C323.545 238.913 328.991 233.66 335.462 230.018C341.933 226.376 349.214 224.465 356.617 224.466ZM506.739 461.094C506.739 418.82 475.002 385.698 434.475 385.698C393.949 385.698 362.218 418.82 362.218 461.094C362.218 476.877 367.11 492.261 376.204 505.08C385.299 517.898 398.137 527.504 412.91 532.544C427.682 537.583 443.645 537.802 458.547 533.17C473.449 528.538 486.54 519.288 495.974 506.724L468.298 491.411C463.23 496.825 456.888 500.849 449.866 503.106C442.844 505.363 435.37 505.779 428.146 504.315C420.921 502.851 414.182 499.555 408.559 494.735C402.935 489.916 398.612 483.73 395.993 476.758H506.739V461.094ZM395.64 445.431C401.318 428.495 416.144 417.012 434.475 417.012C452.806 417.012 467.639 428.495 473.31 445.431H395.64ZM569.98 198.632H529.725L486.102 251.757H470.195V143.5H439.259V338.45H470.195V285.319H486.102L529.766 338.45H570L512.556 268.541L569.98 198.632Z" fill="white"/>
</svg>
