<svg width="240" height="240" viewBox="0 0 240 240" fill="none" xmlns="http://www.w3.org/2000/svg">
<rect width="240" height="240" rx="64" fill="black"/>
<path d="M205.605 91.1402C205.363 91.0017 205.171 90.8108 205.03 90.5738C204.889 90.3368 204.817 90.072 204.817 89.7858C204.817 89.4995 204.889 89.2409 205.03 89.0039C205.171 88.7638 205.366 88.576 205.608 88.4375C205.853 88.299 206.116 88.2281 206.399 88.2281C206.682 88.2281 206.961 88.299 207.206 88.4375C207.451 88.576 207.645 88.7669 207.787 89.0039C207.928 89.244 208 89.5026 208 89.7858C208 90.069 207.928 90.3368 207.787 90.5738C207.645 90.8139 207.451 91.0017 207.206 91.1402C206.961 91.2787 206.691 91.3495 206.399 91.3495C206.107 91.3495 205.846 91.2787 205.605 91.1402ZM207.014 90.8201C207.203 90.7123 207.353 90.5677 207.463 90.383C207.573 90.1983 207.63 89.9982 207.63 89.7765C207.63 89.5549 207.573 89.3702 207.463 89.1886C207.353 89.007 207.203 88.8623 207.011 88.7545C206.82 88.6468 206.616 88.5945 206.399 88.5945C206.182 88.5945 205.981 88.6468 205.793 88.7545C205.605 88.8623 205.454 89.007 205.344 89.1855C205.234 89.364 205.178 89.561 205.178 89.7765C205.178 89.992 205.231 90.1921 205.344 90.3799C205.454 90.5646 205.605 90.7123 205.793 90.8201C205.981 90.9278 206.185 90.9801 206.399 90.9801C206.612 90.9801 206.823 90.9278 207.014 90.8201ZM205.922 88.9854H206.433C206.587 88.9854 206.716 89.0285 206.81 89.1147C206.908 89.2009 206.955 89.3179 206.955 89.4656C206.955 89.6134 206.901 89.7242 206.788 89.8135C206.678 89.9027 206.543 89.9458 206.377 89.9458H206.273L206.506 89.7119L207.043 90.5553H206.669L206.289 89.9458H206.236V90.5553H205.919V88.9854H205.922ZM206.562 89.598C206.6 89.561 206.622 89.518 206.622 89.4687C206.622 89.4133 206.603 89.3702 206.562 89.3394C206.525 89.3086 206.471 89.2932 206.408 89.2932H206.239V89.6534H206.408C206.474 89.6534 206.525 89.6349 206.562 89.6011" fill="white"/>
<path d="M203.428 128.227C183.346 122.19 154.779 115.971 120.215 115.971C85.652 115.971 57.0817 122.187 36.9999 128.227V88.9057C57.0409 94.9641 85.6143 101.224 120.212 101.224C154.81 101.224 183.384 94.9641 203.428 88.9057V128.227Z" fill="white"/>
<path d="M87.6032 151.331C87.0004 151.088 86.4823 150.756 86.0459 150.328C85.6126 149.9 85.2955 149.404 85.104 148.835L87.0789 147.964C87.2704 148.296 87.4996 148.585 87.7665 148.835C88.0334 149.084 88.3191 149.266 88.6268 149.386C88.9345 149.503 89.2453 149.564 89.5593 149.564C89.9203 149.564 90.2437 149.493 90.5263 149.352C90.8089 149.21 91.0349 149.013 91.2045 148.758C91.374 148.502 91.4588 148.204 91.4588 147.862C91.4588 147.446 91.3363 147.074 91.0883 146.745C90.8403 146.412 90.429 146.117 89.8481 145.858L88.3285 145.184C87.5436 144.83 86.9282 144.343 86.4823 143.728C86.0365 143.112 85.8136 142.413 85.8136 141.635C85.8136 140.985 85.98 140.382 86.3128 139.834C86.6456 139.283 87.1166 138.839 87.7257 138.501C88.3348 138.162 89.0192 137.996 89.7822 137.996C90.3505 137.996 90.8779 138.104 91.3677 138.316C91.8575 138.529 92.2751 138.839 92.6268 139.249C92.9753 139.655 93.2233 140.138 93.3677 140.696L91.3049 141.422C91.2076 141.151 91.0789 140.917 90.9156 140.72C90.7524 140.526 90.5608 140.379 90.3348 140.277C90.1119 140.175 89.8732 140.126 89.6189 140.126C89.3426 140.126 89.0852 140.185 88.8497 140.302C88.6142 140.422 88.4227 140.594 88.2783 140.825C88.1338 141.056 88.0616 141.308 88.0616 141.579C88.0616 141.958 88.1746 142.287 88.407 142.564C88.6362 142.841 88.991 143.094 89.4745 143.318L91.0852 144.063C91.9768 144.479 92.6425 144.95 93.0758 145.482C93.509 146.015 93.7257 146.695 93.7257 147.523C93.7257 148.422 93.5373 149.186 93.1637 149.814C92.79 150.442 92.2845 150.913 91.6535 151.223C91.0192 151.537 90.3159 151.694 89.5436 151.694C88.856 151.694 88.2092 151.571 87.6064 151.331" fill="white"/>
<path d="M100.007 138.266H103.737C104.628 138.266 105.441 138.429 106.173 138.755C106.905 139.081 107.482 139.559 107.912 140.183C108.339 140.811 108.556 141.563 108.556 142.437C108.556 143.311 108.343 144.05 107.912 144.684C107.485 145.318 106.905 145.792 106.173 146.112C105.441 146.432 104.631 146.592 103.737 146.592H102.251V151.404H100.007V138.269V138.266ZM104.986 144.311C105.372 144.139 105.674 143.893 105.89 143.567C106.107 143.24 106.217 142.865 106.217 142.44C106.217 141.778 105.981 141.258 105.511 140.879C105.04 140.501 104.43 140.31 103.683 140.31H102.251V144.57H103.683C104.167 144.57 104.6 144.484 104.986 144.311Z" fill="white"/>
<path d="M117.708 138.266H119.265L124.662 151.401H122.289L118.141 140.891H118.829L114.681 151.401H112.327L117.705 138.266H117.708ZM115.626 146.611H121.765L122.361 148.652H114.631L115.626 146.611Z" fill="white"/>
<path d="M132.424 150.791C131.356 150.194 130.518 149.375 129.915 148.331C129.312 147.291 129.011 146.124 129.011 144.834C129.011 143.545 129.312 142.378 129.915 141.337C130.518 140.297 131.356 139.478 132.424 138.878C133.491 138.281 134.684 137.982 136 137.982C136.785 137.982 137.532 138.111 138.245 138.373C138.957 138.635 139.585 138.986 140.129 139.429C140.672 139.872 141.105 140.38 141.432 140.946L139.711 142.119C139.444 141.765 139.127 141.439 138.76 141.143C138.392 140.848 137.972 140.614 137.501 140.442C137.03 140.269 136.534 140.183 136.016 140.183C135.133 140.183 134.342 140.386 133.636 140.796C132.929 141.205 132.373 141.762 131.968 142.473C131.563 143.184 131.362 143.969 131.362 144.834C131.362 145.699 131.563 146.484 131.968 147.195C132.373 147.906 132.929 148.464 133.636 148.873C134.342 149.282 135.136 149.486 136.016 149.486C136.534 149.486 137.033 149.396 137.51 149.221C137.987 149.042 138.417 148.808 138.804 148.519C139.19 148.23 139.51 147.894 139.764 147.516L141.519 148.722C141.014 149.587 140.264 150.295 139.275 150.852C138.286 151.41 137.193 151.687 135.997 151.687C134.681 151.687 133.488 151.388 132.421 150.791" fill="white"/>
<path d="M147.572 138.266H155.12V140.325H149.779V144.425L148.928 143.539H154.812V145.598H148.928L149.779 144.693V149.344H155.321V151.404H147.572V138.266Z" fill="white"/>
</svg>
