<svg width="324" height="184" viewBox="0 0 324 184" fill="none" xmlns="http://www.w3.org/2000/svg">
<path d="M106.325 183.85C106.085 183.85 105.845 183.76 105.665 183.6C105.165 183.16 104.345 182.68 103.505 182.6C103.245 182.65 102.985 182.68 102.715 182.68C101.695 182.68 100.785 182.32 99.8946 181.98C99.0946 181.67 98.3346 181.37 97.5846 181.37C97.1046 181.37 96.6546 181.49 96.1946 181.74C96.0446 181.82 95.8746 181.86 95.7146 181.86C95.6046 181.86 95.5046 181.84 95.3946 181.81C95.1346 181.72 94.8646 181.63 94.5346 181.56C94.2646 181.5 94.0246 181.33 93.8746 181.09C93.7346 180.85 93.5546 180.64 93.3746 180.51C93.1946 180.38 93.0646 180.18 93.0046 179.97C92.9746 179.86 92.9146 179.75 92.8446 179.64C92.6846 179.42 92.6246 179.15 92.6646 178.89C92.7046 178.63 92.8546 178.39 93.0746 178.24C93.5046 177.94 93.5646 177.67 93.5846 177.5C93.6246 176.95 93.1646 176.14 92.3846 175.39C91.9946 175.02 91.7046 174.6 91.4446 174.23C90.9246 173.49 90.7446 173.3 90.3346 173.3C90.3146 173.3 90.2946 173.3 90.2646 173.3C90.1846 173.3 90.0746 173.3 90.0146 173.28C88.5946 172.99 87.3946 171.9 86.2446 170.85C85.1246 169.83 83.9746 168.78 82.7346 168.56C82.2946 168.48 81.9546 168.11 81.9146 167.66C81.8046 166.36 81.1946 164.78 79.8246 164.23C79.5046 164.1 79.2746 163.81 79.2146 163.47C78.9846 162.18 78.3746 160.67 77.3946 160.67C77.1646 160.67 76.9046 160.74 76.6046 160.88C76.4746 160.94 76.3246 160.98 76.1746 160.98C76.0846 160.98 76.0046 160.97 75.9246 160.95C74.4346 160.56 73.5546 159.02 72.6146 157.39C71.7246 155.84 70.8046 154.24 69.6246 154.24C69.4246 154.24 69.2146 154.28 68.9846 154.36C68.8746 154.4 68.7646 154.42 68.6546 154.42C68.6046 154.42 68.5446 154.42 68.4946 154.41C68.4146 154.4 68.3246 154.39 68.2146 154.39C67.6246 154.39 66.8346 154.58 66.5246 155.11C66.3746 155.37 66.1246 155.54 65.8346 155.6C65.7746 155.6 65.7146 155.61 65.6646 155.61C65.4346 155.61 65.2046 155.53 65.0146 155.37C64.7146 155.12 64.4246 154.85 64.1346 154.6C63.6246 154.15 63.1546 153.72 62.6846 153.39C62.4446 153.22 62.2946 152.95 62.2746 152.66C61.9846 149.08 58.9846 143.56 55.5946 143.56C55.5346 143.56 55.4746 143.56 55.4046 143.56C55.2046 143.63 54.9946 143.66 54.7646 143.66C53.9346 143.66 53.0646 143.23 51.8246 142.49C51.5646 142.34 51.3946 142.08 51.3446 141.78C51.0946 140.16 50.0246 138.54 48.5346 137.56C48.3046 137.41 48.1446 137.16 48.0946 136.88C47.9946 136.25 47.7046 135.79 47.2246 135.51C47.0246 135.39 46.8646 135.2 46.7846 134.98C46.5646 134.34 46.2146 133.91 45.7646 133.71C45.5846 133.63 45.4246 133.49 45.3146 133.32C45.1846 133.11 45.0146 132.93 44.8146 132.8C44.6246 132.67 44.4846 132.48 44.4146 132.26C43.5946 129.6 41.1146 126.73 38.5446 126.73C37.9346 126.73 37.3346 126.9 36.7546 127.23C36.5946 127.32 36.4246 127.37 36.2546 127.37C35.9946 127.37 35.7446 127.27 35.5446 127.08C35.2446 126.78 35.0546 126.76 34.8846 126.76C34.7246 126.76 34.5746 126.79 34.4246 126.81C34.1946 126.85 33.9646 126.87 33.7446 126.87C32.2746 126.87 31.6346 125.62 31.2446 124.51C30.6546 123.28 29.5946 121.08 27.9546 120.78C27.9046 120.78 27.8646 120.78 27.8146 120.78C26.5146 120.78 26.0546 119.48 25.7446 118.63C25.6146 118.27 25.4746 117.87 25.3246 117.68C25.1346 117.43 25.0646 117.1 25.1546 116.8C25.6046 115.24 25.6346 113.94 25.2346 113.42C25.1746 113.33 24.9946 113.1 24.3746 113.1C24.2746 113.1 24.1646 113.1 24.0446 113.12C24.0046 113.12 23.9746 113.12 23.9346 113.12C23.5446 113.12 23.1946 112.9 23.0246 112.54C22.6446 111.71 22.4946 110.73 22.3446 109.77C22.0546 107.86 21.7946 106.68 20.6946 106.41C20.1946 106.29 19.8646 105.81 19.9446 105.3C20.4046 102.14 19.8146 101.94 18.3946 101.46C17.0846 101.01 15.2946 100.4 14.0546 97.73C13.9946 97.6 13.9646 97.46 13.9646 97.31C13.9646 96.93 14.1846 96.5 14.5246 96.33C15.7846 95.71 17.0946 95.06 17.4646 91.81C17.4946 91.53 17.6446 91.28 17.8746 91.11C18.2046 90.87 18.3946 90.46 18.4546 90.18C18.5046 89.97 18.6146 89.78 18.7746 89.63C20.1746 88.42 20.9346 86.63 20.6746 85.19C20.4846 84.14 19.7846 83.39 18.5846 82.95C18.0946 82.77 17.8246 82.24 17.9646 81.74C18.2346 80.79 18.1546 79.92 17.7646 79.4C17.4646 79 16.9646 78.8 16.2646 78.8C16.1146 78.8 15.9646 78.8 15.8046 78.83C15.7646 78.83 15.7346 78.83 15.6946 78.83C15.3746 78.83 15.0746 78.68 14.8846 78.41C14.4846 77.85 13.8546 77.58 13.1946 77.28C12.5146 76.98 11.8146 76.67 11.2946 76.03C11.2546 75.99 11.2246 75.94 11.2046 75.89C11.0546 75.62 10.7546 75.43 10.4046 75.39C10.1346 75.36 9.88463 75.22 9.72463 75.01C9.30463 74.47 8.78463 74.07 8.17463 73.84C7.81463 73.7 7.57463 73.38 7.53463 73C7.42463 71.86 6.57463 71.38 5.17463 70.73C4.97463 70.64 4.78463 70.55 4.60463 70.46C4.25463 70.29 4.04463 69.93 4.04463 69.54C4.05463 68.91 4.13463 68.3 4.21463 67.71C4.47463 65.68 4.67463 64.07 2.46463 62.19C2.29463 62.04 2.17463 61.85 2.13463 61.63C2.03463 61.13 1.48463 60.49 1.01463 60.49C0.54463 60.49 0.12463 60.17 0.0246304 59.71C-0.0753696 59.25 0.13463 58.79 0.55463 58.59C0.82463 58.46 0.97463 58.28 1.03463 58.01C1.12463 57.6 0.96463 57.06 0.64463 56.67C0.40463 56.38 0.35463 55.98 0.50463 55.63C0.65463 55.28 0.99463 55.05 1.37463 55.04C1.56463 55.04 1.73463 55.01 1.89463 54.99C1.93463 54.99 1.96463 54.99 2.00463 54.99C2.44463 54.99 2.83463 55.28 2.96463 55.7C3.01463 55.87 3.06463 56.05 3.11463 56.24C3.38463 57.26 3.63463 58.22 4.78463 58.76C5.21463 58.96 5.44463 59.44 5.33463 59.9C5.20463 60.44 5.56463 60.86 6.80463 61.66C7.17463 61.9 7.35463 62.36 7.22463 62.78C6.92463 63.8 6.98463 64.63 7.39463 65.17C7.72463 65.61 8.28463 65.87 8.90463 65.87C9.52463 65.87 10.0546 65.63 10.3346 65.22C10.7446 64.64 10.5846 63.84 10.3746 63.27C10.3046 63.07 10.2946 62.86 10.3546 62.66L10.4246 62.42C10.5146 62.11 10.5946 61.85 10.6446 61.49C10.6946 61.19 10.8746 60.92 11.1446 60.77C11.5046 60.57 12.0546 60.09 11.7946 59.15C11.7046 58.83 11.7746 58.49 11.9946 58.24C12.1746 58.02 12.3646 57.82 12.5546 57.62C13.1346 56.99 13.6446 56.44 13.8846 55.5C13.9746 55.16 14.2346 54.89 14.5746 54.79C15.1546 54.62 15.7246 54.08 15.8646 53.55C15.9246 53.33 16.0546 53.14 16.2346 53.01C17.4646 52.1 18.1346 51.12 18.8646 49.74C19.0046 49.48 19.2546 49.29 19.5446 49.23C19.9746 49.14 20.5046 49.01 21.0646 48.87C22.6846 48.47 24.5246 48.02 25.8846 48.02C26.0346 48.02 26.1846 48.02 26.3246 48.04C26.6546 48.07 26.9546 48.26 27.1146 48.55C27.3046 48.9 27.6446 48.97 27.8846 48.97C28.2746 48.97 28.8846 48.75 28.9346 48.16C28.8246 47.18 29.9746 46.57 32.5946 45.29L33.2746 44.96C33.4146 44.89 33.5746 44.85 33.7246 44.85C33.9846 44.85 34.2446 44.95 34.4346 45.15C36.0446 46.78 38.0746 47.75 39.8546 47.75C40.9646 47.75 41.9146 47.38 42.6046 46.67C43.5546 45.71 44.0346 44.13 43.9946 42.11C43.9946 41.72 44.2046 41.36 44.5646 41.19C44.7046 41.12 44.8546 41.09 44.9946 41.09C45.2246 41.09 45.4446 41.17 45.6346 41.32C45.7846 41.44 45.9446 41.5 46.1246 41.5C46.5446 41.5 47.1146 41.2 47.5446 40.75C47.7346 40.55 48.0046 40.44 48.2646 40.44C48.4446 40.44 48.6246 40.49 48.7846 40.59C49.5846 41.08 50.2646 41.33 50.7846 41.33C51.9146 41.33 52.5046 39.91 53.2746 37.74C53.5846 36.86 53.9146 35.95 54.3346 35.16C54.4846 34.87 54.7746 34.67 55.1046 34.63C55.1446 34.63 55.1846 34.63 55.2146 34.63C55.5046 34.63 55.7746 34.75 55.9746 34.98C56.2746 35.32 56.7346 35.53 57.2246 35.53C57.6146 35.53 57.9546 35.4 58.1246 35.18C58.2846 34.98 58.3146 34.68 58.2246 34.29C58.1346 33.94 58.2546 33.56 58.5146 33.32C58.8646 33 59.2946 32.72 59.7146 32.46C59.9746 32.29 60.2346 32.13 60.4346 31.97C60.6246 31.82 60.8446 31.75 61.0646 31.75C61.3446 31.75 61.6246 31.87 61.8246 32.1C62.4746 32.86 63.6846 33.64 64.5746 33.64C64.8946 33.64 65.2246 33.56 65.4646 32.96C65.5146 32.82 65.6046 32.7 65.7046 32.6C66.9246 31.46 67.5946 30.42 67.6046 30.1C67.5746 29.84 67.6546 29.6 67.8146 29.39C68.5446 28.47 68.5146 27.48 68.3946 26.63C68.3546 26.31 68.4646 25.99 68.6946 25.77C68.8846 25.59 69.1346 25.49 69.3846 25.49C69.4446 25.49 69.5046 25.49 69.5646 25.51C69.7646 25.55 69.9746 25.57 70.1746 25.57C71.0246 25.57 71.7846 25.25 72.5946 24.9C73.1546 24.66 73.7346 24.42 74.3546 24.28C74.4246 24.26 74.4946 24.26 74.5646 24.26C74.8546 24.26 75.1246 24.38 75.3146 24.6C75.5146 24.83 75.8246 24.96 76.1546 24.96C76.3346 24.96 76.7846 24.91 77.0046 24.49C77.1146 24.28 77.2946 24.12 77.5046 24.03C77.8946 23.87 78.3346 23.79 78.8646 23.79C79.5246 23.79 80.2246 23.91 80.9046 24.03C81.5346 24.14 82.1846 24.26 82.7246 24.26C83.5146 24.26 83.7946 24.03 83.9746 23.68C84.1346 23.38 84.4346 23.18 84.7746 23.15C85.2546 23.11 85.4346 22.94 85.5146 22.81C85.7846 22.43 85.7946 21.63 85.5546 20.72C85.4646 20.36 85.5746 19.98 85.8446 19.73C86.0346 19.56 86.2746 19.46 86.5246 19.46C86.6346 19.46 86.7446 19.48 86.8546 19.52C86.9346 19.55 87.0046 19.56 87.0846 19.56C87.5746 19.56 88.0846 19 88.2046 18.51C88.3146 18.06 88.7146 17.74 89.1746 17.74C89.1846 17.74 89.2046 17.74 89.2146 17.74C89.7646 17.76 90.3146 17.87 90.8546 17.98C91.4246 18.1 92.0246 18.22 92.5746 18.22C93.2546 18.22 94.0546 18.07 94.8946 16.97C94.9746 16.86 95.0846 16.77 95.2046 16.7C96.2746 16.11 97.4546 15.74 98.4946 15.41C100.665 14.73 101.645 14.32 101.715 13.27C101.695 12.66 102.015 12.19 102.645 11.87C102.785 11.8 102.935 11.76 103.095 11.76C103.235 11.76 103.375 11.79 103.505 11.85C104.125 12.13 104.855 12.28 105.515 12.28C106.095 12.28 106.875 12.16 107.345 11.56C107.535 11.32 107.825 11.18 108.135 11.18H108.165C108.625 11.18 109.015 10.97 109.345 10.57C109.895 9.9 110.075 8.96 109.975 8.41C109.965 8.35 109.955 8.29 109.955 8.23C109.955 7.65 109.455 7.39 108.085 6.96C107.605 6.81 107.145 6.67 106.745 6.46C106.315 6.23 106.105 5.73 106.255 5.27C106.365 4.93 106.235 4.65 106.115 4.48C105.905 4.2 105.575 4.02 105.255 4.02C105.135 4.02 105.005 4.05 104.895 4.1C104.765 4.16 104.625 4.19 104.485 4.19C104.195 4.19 103.925 4.07 103.725 3.84C103.435 3.51 103.405 3.02 103.645 2.65C103.785 2.43 103.965 2.22 104.145 2C104.495 1.58 104.665 1.36 104.625 1.16C104.565 0.77 104.725 0.39 105.045 0.17C105.215 0.06 105.415 0 105.605 0C105.785 0 105.965 0.05 106.125 0.14C106.445 0.34 106.875 0.46 107.245 0.46C107.525 0.46 107.885 0.58 108.075 0.79C108.835 1.63 109.715 2.15 110.375 2.15C110.625 2.15 110.995 2.09 111.385 1.55C111.575 1.28 111.875 1.13 112.195 1.13C112.235 1.13 112.285 1.13 112.325 1.13C112.465 1.15 112.595 1.17 112.725 1.2C112.915 1.23 113.095 1.27 113.355 1.28C113.655 1.28 113.925 1.42 114.115 1.66C114.305 1.89 114.585 2.04 114.875 2.06C115.085 2.07 115.295 2.15 115.455 2.29L115.575 2.39C115.965 2.71 116.365 3.05 117.095 3.05C117.485 3.05 117.895 3.28 118.055 3.63C118.635 4.9 118.185 6.43 117.775 7.78C117.595 8.37 117.225 9.61 117.395 9.85C117.395 9.85 117.535 9.98 118.125 9.98C118.425 9.98 118.795 9.95 119.215 9.88C119.265 9.88 119.325 9.87 119.375 9.87C119.685 9.87 119.975 10.01 120.165 10.26C120.385 10.55 120.435 10.94 120.285 11.28C119.855 12.24 119.925 13.26 120.485 14.16C121.135 15.18 122.315 15.83 123.585 15.85C123.865 15.85 124.125 15.97 124.305 16.18C124.635 16.54 125.335 16.79 126.155 16.83C126.365 16.84 126.565 16.92 126.725 17.04C127.055 17.31 127.375 17.43 127.675 17.43C128.815 17.43 130.095 15.6 130.615 13.91C130.735 13.52 131.075 13.25 131.485 13.21C131.625 13.2 131.775 13.19 131.935 13.19C132.785 13.19 133.765 13.38 134.705 13.57C135.615 13.75 136.545 13.93 137.305 13.93C138.215 13.93 138.455 13.67 138.535 13.58C138.825 13.27 138.935 12.61 138.845 11.69C138.835 11.53 138.855 11.36 138.915 11.21C139.135 10.69 139.115 10.17 138.875 9.56C138.725 9.19 138.805 8.77 139.085 8.48C139.845 7.71 140.175 6.78 139.995 5.92C139.845 5.2 139.345 4.63 138.615 4.34C138.315 4.22 138.085 3.96 138.015 3.65C137.935 3.33 138.015 3 138.235 2.76C138.465 2.5 138.645 2.33 138.835 2.22C139.005 2.12 139.185 2.06 139.375 2.06C139.645 2.06 139.915 2.17 140.105 2.38C140.275 2.57 140.535 2.67 140.815 2.67C141.025 2.67 141.215 2.61 141.375 2.5C141.545 2.38 141.745 2.33 141.935 2.33C142.125 2.33 142.325 2.39 142.495 2.5C142.775 2.64 143.025 2.94 143.085 3.24C143.145 3.53 143.405 4.48 144.325 4.48C144.625 4.48 144.955 4.39 145.325 4.21C145.465 4.14 145.615 4.11 145.765 4.11C146.095 4.11 146.425 4.28 146.615 4.57C146.825 4.9 147.105 5.06 147.505 5.06C147.965 5.06 148.505 4.84 148.895 4.48C149.085 4.31 149.325 4.22 149.565 4.22C149.805 4.22 150.045 4.31 150.235 4.48C150.415 4.64 150.605 4.78 150.825 4.89C151.075 5.02 151.255 5.24 151.335 5.51C151.435 5.88 151.545 6.13 151.675 6.44C151.815 6.77 151.775 7.14 151.565 7.43C149.595 10.13 151.735 12.37 154.515 14.8C154.845 15.08 155.145 15.35 155.405 15.59C155.635 15.81 155.755 16.13 155.715 16.44C155.545 17.76 155.845 19.03 156.485 19.75C156.695 19.99 157.045 20.28 157.495 20.28C158.045 20.28 158.675 19.86 159.255 19.08C159.445 18.82 159.745 18.68 160.055 18.68C160.195 18.68 160.345 18.71 160.475 18.77C162.355 19.65 165.045 20.71 167.195 20.71C167.395 20.71 167.615 20.77 167.775 20.88C170.155 22.45 172.225 23.21 174.095 23.21C175.145 23.21 175.985 22.97 176.725 22.76L176.915 22.71C177.005 22.69 177.095 22.67 177.185 22.67C177.595 22.67 177.965 22.92 178.115 23.32C178.495 24.33 178.735 25.21 178.945 26C179.515 28.11 179.675 28.35 180.545 28.35C181.315 28.35 182.555 28.03 184.335 27.38C184.445 27.34 184.565 27.32 184.685 27.32C185.075 27.32 185.445 27.55 185.605 27.94L185.755 28.3C186.005 28.9 186.235 29.46 186.665 30.3C186.895 30.74 186.775 31.28 186.375 31.57C185.965 31.87 185.845 32.22 185.995 32.68C186.215 33.36 186.955 33.94 187.595 33.94C187.955 33.94 188.265 33.77 188.555 33.41C188.745 33.17 189.035 33.04 189.335 33.04C189.355 33.04 189.405 33.04 189.405 33.04C189.575 33.04 189.855 32.72 190.305 31.21C190.495 30.56 190.625 30.13 190.945 29.83C191.135 29.65 191.385 29.55 191.635 29.55C191.745 29.55 191.865 29.57 191.975 29.61C192.525 29.81 193.095 30.07 193.705 30.36C194.785 30.86 196.005 31.43 196.835 31.43C197.175 31.43 197.805 31.43 197.955 29.59C197.985 29.24 198.195 28.94 198.495 28.78C198.635 28.71 198.795 28.67 198.945 28.67C199.125 28.67 199.305 28.72 199.465 28.82C200.295 29.32 200.855 29.38 201.505 29.45C203.235 29.63 204.535 30.04 206.795 33.99C207.045 34.42 206.935 34.97 206.535 35.28C206.015 35.68 205.705 36.27 205.685 36.88C205.685 37.1 205.595 37.31 205.455 37.48C205.215 37.77 205.095 38.18 205.125 38.54C205.155 38.83 205.055 39.12 204.845 39.33L203.835 40.37C203.645 40.57 203.375 40.67 203.115 40.67C202.895 40.67 202.685 40.6 202.505 40.46C202.345 40.34 202.175 40.27 201.975 40.27C201.505 40.27 200.945 40.67 200.875 41.26C200.845 41.54 200.685 41.8 200.455 41.96C200.285 42.08 200.085 42.14 199.875 42.14C199.795 42.14 199.725 42.14 199.655 42.11C199.575 42.09 199.505 42.08 199.445 42.08C199.005 42.08 198.615 42.57 198.075 43.32C197.825 43.66 197.575 44.02 197.285 44.32C197.145 44.46 196.975 44.56 196.785 44.6C195.785 44.82 195.645 45.57 195.705 46.15C195.795 47.08 196.485 48.1 197.365 48.12C197.795 48.13 198.165 48.41 198.295 48.82C198.395 49.15 198.525 49.34 198.785 49.53C199.015 49.7 199.155 49.95 199.185 50.23C199.215 50.53 199.865 51 200.565 51C200.785 51 201.085 50.95 201.255 50.72C201.435 50.48 201.715 50.33 202.005 50.32H202.165C202.335 50.32 202.475 50.33 202.575 50.34C202.975 50.39 203.345 50.67 203.455 51.06C203.505 51.22 203.545 51.41 203.605 51.61C203.885 52.69 204.345 54.5 205.395 54.62C205.435 54.62 205.465 54.63 205.505 54.64C207.335 55.05 208.685 57 209.995 58.88C210.825 60.09 211.695 61.33 212.545 61.94C212.835 62.15 212.995 62.5 212.955 62.86C212.735 64.78 213.745 67.36 215.475 69.29C216.785 70.75 218.305 71.59 219.645 71.59C220.275 71.59 220.885 71.41 221.455 71.04C222.295 69.65 223.255 68.59 223.885 68.37C223.975 68.34 224.065 68.32 224.155 68.32C224.755 68.28 225.125 67.46 225.585 66.29C225.915 65.45 226.225 64.67 226.805 64.18C226.985 64.02 227.225 63.94 227.455 63.94C227.635 63.94 227.815 63.99 227.985 64.09C228.125 64.18 228.255 64.22 228.385 64.22C229.005 64.22 229.815 63.24 230.295 62.65C230.425 62.49 230.615 62.36 230.815 62.3C230.905 62.28 231.065 62.26 231.155 62.26C231.265 62.26 231.435 62.27 231.645 62.29C231.885 62.31 232.195 62.34 232.485 62.34C232.705 62.34 232.825 62.32 232.885 62.31C233.045 62.17 233.245 62.08 233.455 62.06C233.485 62.06 233.525 62.06 233.555 62.06C233.785 62.06 234.015 62.14 234.195 62.29C234.485 62.53 234.765 62.65 235.045 62.65C235.655 62.65 236.185 62.1 236.385 61.55C236.495 61.24 236.615 60.65 236.105 60.22C235.775 59.94 235.665 59.48 235.825 59.08C236.505 57.41 236.315 56.02 233.155 54.7C232.875 54.58 232.665 54.34 232.575 54.05C232.015 52.07 231.055 49.28 229.295 47.97C228.915 47.68 228.785 47.17 228.995 46.74C229.245 46.21 229.735 45.9 230.295 45.9C230.955 45.9 231.555 46.31 232.245 46.79C232.755 47.14 233.445 47.62 233.825 47.62C233.865 47.62 233.905 47.62 233.975 47.54C234.165 47.34 234.435 47.23 234.695 47.23C234.795 47.23 234.895 47.25 234.995 47.28C235.575 47.46 236.125 47.72 236.655 47.98C237.485 48.37 238.265 48.74 239.145 48.84C239.445 48.87 239.715 49.04 239.875 49.3C240.335 50.03 241.205 50.4 242.445 50.4C242.675 50.4 242.895 50.39 243.115 50.37C243.145 50.37 243.185 50.37 243.215 50.37C243.665 50.37 244.065 50.68 244.185 51.12C244.745 53.32 247.385 55.03 249.285 55.03C249.455 55.03 249.625 55.02 249.795 54.99C249.855 54.98 249.915 54.97 249.985 54.97C250.295 54.97 250.595 55.12 250.785 55.37C251.015 55.68 251.045 56.09 250.875 56.43C250.615 56.93 250.665 57.55 250.995 58.09C251.255 58.52 251.655 58.8 252.005 58.8C252.275 58.8 252.545 58.63 252.805 58.3C252.985 58.07 253.265 57.93 253.555 57.92C253.555 57.92 253.575 57.92 253.585 57.92C253.865 57.92 254.135 58.04 254.325 58.25C254.785 58.76 255.865 59.95 256.505 59.95C256.815 59.95 257.115 59.44 257.265 59.14C257.425 58.82 257.735 58.61 258.085 58.59C258.495 58.56 258.915 58.55 259.345 58.55C259.865 58.55 260.395 58.57 260.935 58.59C261.465 58.61 262.005 58.63 262.545 58.63C264.965 58.63 266.855 58.26 268.225 56.43C268.425 56.17 268.725 56.03 269.025 56.03C269.195 56.03 269.375 56.07 269.535 56.17C269.975 56.43 270.145 56.97 269.945 57.44C269.455 58.54 269.465 60.14 270.465 60.93C270.805 61.2 270.935 61.67 270.775 62.07C270.625 62.46 270.255 62.71 269.845 62.71C269.825 62.71 269.775 62.71 269.775 62.71C269.265 62.71 268.805 63.12 268.765 63.56C268.725 63.98 268.415 64.33 268.005 64.43C267.685 64.51 267.315 64.58 266.915 64.66C265.585 64.93 263.375 65.38 263.005 66.19C262.875 66.49 263.045 66.92 263.235 67.26C263.555 67.63 263.845 67.98 264.105 68.29C265.725 70.21 266.215 70.77 266.955 70.77C267.165 70.77 267.415 70.73 267.725 70.66C267.805 70.64 267.885 70.63 267.965 70.63C268.175 70.63 268.395 70.7 268.565 70.83C270.105 71.98 271.235 74.85 271.655 76.02C271.715 76.2 271.735 76.39 271.685 76.58C271.625 76.85 271.665 77.07 271.805 77.27C272.055 77.62 272.615 77.89 273.195 77.94C273.635 77.98 273.995 78.3 274.085 78.73C274.535 80.85 276.505 81.01 277.105 81.01C278.185 81.01 279.215 80.59 279.845 79.88C280.575 79.11 281.285 78.93 281.865 78.78C282.175 78.7 282.425 78.64 282.665 78.49C282.825 78.39 283.015 78.34 283.195 78.34C283.345 78.34 283.505 78.38 283.645 78.45C283.885 78.57 284.185 78.64 284.485 78.64C284.785 78.64 285.295 78.58 285.485 78.15C285.635 77.82 285.945 77.59 286.315 77.56C286.345 77.56 286.375 77.56 286.405 77.56C286.735 77.56 287.045 77.72 287.235 78C287.685 78.67 289.465 80.26 290.575 80.26C290.815 80.26 290.995 80.18 291.155 79.99C291.345 79.77 291.625 79.65 291.905 79.65C291.945 79.65 291.975 79.65 292.015 79.65C292.335 79.68 292.625 79.87 292.785 80.16C293.215 80.94 293.965 81.42 295.115 81.67C295.485 81.75 295.785 82.04 295.875 82.41C296.265 84 297.035 84.98 297.865 84.98C298.345 84.98 298.875 84.67 299.335 84.12C299.485 83.94 299.695 83.82 299.915 83.78C300.245 83.72 300.575 83.69 300.905 83.69C302.525 83.69 303.725 84.48 304.785 85.19C305.815 85.87 306.785 86.51 308.145 86.51C308.365 86.51 308.595 86.49 308.845 86.46C308.895 86.46 308.945 86.45 308.985 86.45C309.455 86.45 309.865 86.78 309.965 87.24C310.045 87.61 310.225 87.96 310.505 88.29C310.795 88.62 310.835 89.11 310.595 89.48C309.635 91 311.115 95.28 312.515 97.43C312.675 97.68 312.725 97.99 312.625 98.28C312.565 98.46 312.675 99.2 313.265 100.01C313.525 100.37 314.255 101.21 315.245 101.21C315.405 101.21 315.565 101.19 315.735 101.14C315.815 101.12 315.905 101.11 315.995 101.11C316.315 101.11 316.615 101.26 316.805 101.53L316.935 101.72C317.485 102.51 317.995 103.11 319.015 103.11C319.315 103.11 319.655 103.05 320.025 102.95C320.115 102.92 320.215 102.91 320.315 102.91C320.565 102.91 320.805 103 320.985 103.17C321.245 103.41 321.365 103.76 321.295 104.1C321.095 105.09 321.575 106.26 322.035 107.39C322.455 108.42 322.895 109.49 322.875 110.55C322.875 110.63 322.865 110.71 322.835 110.79C322.735 111.17 322.865 111.58 323.175 111.84C323.405 112.03 323.545 112.31 323.545 112.61C323.545 112.91 323.425 113.19 323.195 113.38C322.565 113.92 321.795 114.38 321.055 114.82C320.615 115.09 320.175 115.34 319.795 115.61C319.625 115.73 319.425 115.79 319.225 115.79C319.095 115.79 318.965 115.76 318.835 115.71C317.795 115.27 316.865 115.07 315.905 115.07C315.305 115.07 314.745 115.15 314.305 115.22C313.885 115.28 313.465 115.34 313.015 115.34C312.295 115.34 311.625 115.17 310.825 114.8C310.725 114.76 310.575 114.73 310.435 114.73C309.995 114.73 309.515 115 309.105 115.47C308.575 116.09 308.265 116.94 308.355 117.55C308.415 117.92 308.255 118.29 307.945 118.51C307.595 118.76 306.995 119.68 306.515 120.42C305.515 121.96 304.725 123.17 303.625 123.17C303.545 123.17 303.385 123.15 303.305 123.13C303.265 123.13 303.205 123.11 303.145 123.11C302.865 123.11 302.575 123.26 302.375 123.5C302.195 123.72 302.115 123.99 302.155 124.23C302.645 128.29 298.495 129.34 295.465 130.1C293.485 130.6 291.435 131.12 291.345 132.1C291.315 132.41 291.145 132.69 290.885 132.86C290.865 132.87 289.085 134.02 289.625 135.13C289.665 135.22 289.695 135.31 289.715 135.41C289.855 136.26 289.555 137.14 289.265 137.99C288.975 138.85 288.675 139.73 288.845 140.48C288.895 140.7 288.875 140.94 288.775 141.14C288.385 141.95 288.155 143.19 287.925 144.39C287.435 147.04 286.875 150.03 284.225 150.49C284.165 150.49 284.115 150.5 284.055 150.5C283.985 150.5 283.915 150.5 283.845 150.48C283.345 150.37 282.855 150.32 282.395 150.32C278.075 150.32 277.175 155.09 277.005 156.55C276.945 157.04 276.545 157.41 276.045 157.43C272.875 157.55 271.565 158.84 270.055 160.33C268.645 161.72 267.045 163.31 263.885 163.84C263.845 163.84 263.805 163.85 263.765 163.85C263.605 163.85 263.565 163.85 263.285 164.3C263.025 164.72 262.665 165.29 261.905 165.57C261.795 165.61 261.675 165.63 261.555 165.63C261.535 165.63 261.515 165.63 261.495 165.63C259.135 165.5 258.045 164.64 257.315 164.08C256.965 163.8 256.805 163.69 256.675 163.69C256.365 163.69 255.585 164.03 253.635 165.64C253.455 165.79 253.225 165.87 252.995 165.87C252.765 165.87 252.535 165.79 252.345 165.63C251.155 164.61 247.535 161.5 244.875 161.5C244.315 161.5 243.845 161.64 243.425 161.92C242.635 162.93 241.125 164.23 240.225 164.5C239.835 164.62 239.555 164.95 239.515 165.36C239.225 167.07 238.005 168.38 236.835 169.66C235.475 171.13 234.185 172.53 234.425 174.22C234.475 174.57 234.335 174.92 234.055 175.14C233.715 175.41 233.325 175.75 233.085 176.17C232.905 176.48 232.575 176.67 232.215 176.67C232.165 176.67 232.115 176.67 232.065 176.66C231.655 176.6 231.335 176.3 231.235 175.9C230.695 173.58 230.055 172.4 229.335 172.4C229.065 172.4 228.705 172.52 228.295 172.76C228.145 172.85 227.975 172.89 227.805 172.89C227.695 172.89 227.595 172.87 227.485 172.84C227.345 172.79 227.155 172.76 226.965 172.76C226.585 172.76 226.245 172.87 226.095 173.04C225.905 173.26 225.635 173.38 225.345 173.38C224.995 173.38 224.555 173.28 223.815 173.04C223.585 172.96 223.395 172.81 223.265 172.6C222.785 171.8 222.155 171.43 221.275 171.43C221.045 171.43 220.785 171.46 220.525 171.51C220.465 171.52 220.395 171.53 220.335 171.53C220.105 171.53 219.885 171.45 219.705 171.31C219.475 171.12 219.345 170.84 219.335 170.55C219.315 169.51 218.975 168.04 218.255 168.04C218.155 168.04 218.045 168.06 217.925 168.09C217.675 168.17 217.405 168.21 217.125 168.21C215.935 168.21 214.955 167.47 214.085 166.81C213.515 166.38 212.875 165.9 212.465 165.9C212.395 165.9 212.185 165.9 211.835 166.3C211.645 166.52 211.365 166.64 211.085 166.64C210.975 166.64 210.855 166.62 210.745 166.58C210.485 166.49 210.205 166.44 209.905 166.44C209.105 166.44 208.255 166.79 207.715 167.35C207.405 167.67 207.035 168.22 207.045 169C207.045 169.26 206.955 169.51 206.775 169.7L206.495 170C206.095 170.43 205.635 170.92 205.075 171.41C204.885 171.58 204.655 171.66 204.415 171.66C204.175 171.66 203.935 171.57 203.745 171.4C203.515 171.19 203.265 171.15 203.085 171.15C202.875 171.15 202.665 171.21 202.475 171.33C202.315 171.43 202.135 171.48 201.955 171.48C201.885 171.48 201.815 171.48 201.735 171.46C200.205 171.12 198.485 170.99 196.665 170.85C192.325 170.52 187.835 170.17 185.095 166.99C184.875 166.73 184.795 166.38 184.895 166.05C184.975 165.79 184.895 165.48 184.715 165.23C184.525 164.98 184.255 164.82 183.985 164.82C183.695 164.82 183.415 164.7 183.225 164.48C183.015 164.24 182.595 163.99 182.215 163.98C181.825 163.97 181.475 163.73 181.325 163.37C181.195 163.06 180.905 162.83 180.575 162.78C180.185 162.72 179.865 162.43 179.755 162.05C179.675 161.77 179.475 161.01 178.105 161.01C176.735 161.01 175.155 161.76 174.625 162.44C174.435 162.69 174.135 162.82 173.835 162.82C173.755 162.82 173.665 162.81 173.585 162.79C171.715 162.31 169.805 161.22 168.725 160.01C168.535 159.79 168.275 159.68 167.995 159.68C167.955 159.68 167.915 159.68 167.875 159.68C167.665 159.7 167.465 159.72 167.275 159.72C165.065 159.72 163.635 158.14 162.125 156.47C162.105 156.44 162.075 156.42 162.055 156.39C161.755 155.97 161.345 155.72 160.975 155.72C160.865 155.72 160.755 155.74 160.645 155.79C160.515 155.85 160.385 155.87 160.245 155.87C160.155 155.87 160.055 155.86 159.965 155.83C159.075 155.57 158.245 155.06 157.445 154.57C156.285 153.86 155.185 153.19 153.905 153.19C153.675 153.19 153.445 153.21 153.215 153.26C153.155 153.27 153.095 153.28 153.025 153.28C152.895 153.28 152.765 153.25 152.645 153.2C152.475 153.13 152.305 153.09 152.155 153.09C151.495 153.09 150.995 153.78 150.865 154.42C150.775 154.87 150.395 155.2 149.935 155.23C149.325 155.26 148.725 155.47 148.165 155.68C148.045 155.73 147.925 155.75 147.805 155.75C147.645 155.75 147.485 155.71 147.335 155.63C147.075 155.49 146.895 155.25 146.825 154.97C146.265 152.52 143.385 152.13 142.515 152.06C142.235 152.04 141.965 151.9 141.795 151.67C141.375 151.13 140.695 150.82 139.915 150.82C139.205 150.82 138.545 151.08 138.125 151.51C137.805 151.84 137.655 152.25 137.675 152.74C137.675 152.93 137.635 153.12 137.535 153.29C136.725 154.66 136.945 156.27 137.185 157.98C137.315 158.92 137.445 159.89 137.395 160.83C137.385 161.1 137.255 161.35 137.055 161.53C136.645 161.9 136.625 162.64 136.775 163.03C136.895 163.34 136.845 163.69 136.645 163.96C135.575 165.44 135.975 166.94 136.435 168.09C136.585 168.46 136.505 168.88 136.225 169.16C136.035 169.36 135.775 169.47 135.505 169.47C135.385 169.47 135.275 169.45 135.155 169.41L134.735 169.25C133.505 168.79 131.645 168.09 130.245 168.09C129.015 168.09 128.755 168.59 128.715 169.45C128.575 171.52 127.345 173 126.155 174.44C124.535 176.4 123.125 178.1 124.185 181.19C124.335 181.62 124.175 182.09 123.795 182.34C123.715 182.39 123.555 182.47 123.465 182.5C123.365 182.53 123.255 182.55 123.155 182.55C122.965 182.55 122.775 182.5 122.615 182.39C122.365 182.22 122.195 181.95 122.165 181.65C122.115 181.14 121.675 180.59 121.105 180.59C121.075 180.59 121.045 180.59 121.015 180.59C120.685 180.59 120.325 180.44 120.135 180.19C119.935 179.92 119.535 179.76 119.075 179.76C118.615 179.76 118.125 179.93 117.785 180.24C117.595 180.41 117.365 180.49 117.125 180.49C116.975 180.49 116.815 180.46 116.675 180.38C116.155 180.12 115.645 179.96 115.135 179.91C114.825 179.88 114.545 179.7 114.385 179.43C113.835 178.5 113.225 177.97 112.715 177.97C112.415 177.97 112.155 178.17 111.995 178.34C111.465 178.88 111.155 179.84 111.185 180.84C111.185 181.12 111.085 181.39 110.885 181.59C110.695 181.77 110.445 181.87 110.185 181.87C110.165 181.87 110.125 181.87 110.125 181.87C109.585 181.87 108.955 182.25 108.795 182.56C108.625 182.89 108.275 183.1 107.905 183.1C107.865 183.1 107.715 183.09 107.675 183.09C107.375 183.09 107.095 183.23 106.915 183.46C106.745 183.68 106.495 183.81 106.225 183.84C106.195 183.84 106.165 183.84 106.125 183.84L106.325 183.85Z" fill="#242424" stroke="none"/>
<path d="M106.325 183.85C106.085 183.85 105.845 183.76 105.665 183.6C105.165 183.16 104.345 182.68 103.505 182.6C103.245 182.65 102.985 182.68 102.715 182.68C101.695 182.68 100.785 182.32 99.8946 181.98C99.0946 181.67 98.3346 181.37 97.5846 181.37C97.1046 181.37 96.6546 181.49 96.1946 181.74C96.0446 181.82 95.8746 181.86 95.7146 181.86C95.6046 181.86 95.5046 181.84 95.3946 181.81C95.1346 181.72 94.8646 181.63 94.5346 181.56C94.2646 181.5 94.0246 181.33 93.8746 181.09C93.7346 180.85 93.5546 180.64 93.3746 180.51C93.1946 180.38 93.0646 180.18 93.0046 179.97C92.9746 179.86 92.9146 179.75 92.8446 179.64C92.6846 179.42 92.6246 179.15 92.6646 178.89C92.7046 178.63 92.8546 178.39 93.0746 178.24C93.5046 177.94 93.5646 177.67 93.5846 177.5C93.6246 176.95 93.1646 176.14 92.3846 175.39C91.9946 175.02 91.7046 174.6 91.4446 174.23C90.9246 173.49 90.7446 173.3 90.3346 173.3C90.3146 173.3 90.2946 173.3 90.2646 173.3C90.1846 173.3 90.0746 173.3 90.0146 173.28C88.5946 172.99 87.3946 171.9 86.2446 170.85C85.1246 169.83 83.9746 168.78 82.7346 168.56C82.2946 168.48 81.9546 168.11 81.9146 167.66C81.8046 166.36 81.1946 164.78 79.8246 164.23C79.5046 164.1 79.2746 163.81 79.2146 163.47C78.9846 162.18 78.3746 160.67 77.3946 160.67C77.1646 160.67 76.9046 160.74 76.6046 160.88C76.4746 160.94 76.3246 160.98 76.1746 160.98C76.0846 160.98 76.0046 160.97 75.9246 160.95C74.4346 160.56 73.5546 159.02 72.6146 157.39C71.7246 155.84 70.8046 154.24 69.6246 154.24C69.4246 154.24 69.2146 154.28 68.9846 154.36C68.8746 154.4 68.7646 154.42 68.6546 154.42C68.6046 154.42 68.5446 154.42 68.4946 154.41C68.4146 154.4 68.3246 154.39 68.2146 154.39C67.6246 154.39 66.8346 154.58 66.5246 155.11C66.3746 155.37 66.1246 155.54 65.8346 155.6C65.7746 155.6 65.7146 155.61 65.6646 155.61C65.4346 155.61 65.2046 155.53 65.0146 155.37C64.7146 155.12 64.4246 154.85 64.1346 154.6C63.6246 154.15 63.1546 153.72 62.6846 153.39C62.4446 153.22 62.2946 152.95 62.2746 152.66C61.9846 149.08 58.9846 143.56 55.5946 143.56C55.5346 143.56 55.4746 143.56 55.4046 143.56C55.2046 143.63 54.9946 143.66 54.7646 143.66C53.9346 143.66 53.0646 143.23 51.8246 142.49C51.5646 142.34 51.3946 142.08 51.3446 141.78C51.0946 140.16 50.0246 138.54 48.5346 137.56C48.3046 137.41 48.1446 137.16 48.0946 136.88C47.9946 136.25 47.7046 135.79 47.2246 135.51C47.0246 135.39 46.8646 135.2 46.7846 134.98C46.5646 134.34 46.2146 133.91 45.7646 133.71C45.5846 133.63 45.4246 133.49 45.3146 133.32C45.1846 133.11 45.0146 132.93 44.8146 132.8C44.6246 132.67 44.4846 132.48 44.4146 132.26C43.5946 129.6 41.1146 126.73 38.5446 126.73C37.9346 126.73 37.3346 126.9 36.7546 127.23C36.5946 127.32 36.4246 127.37 36.2546 127.37C35.9946 127.37 35.7446 127.27 35.5446 127.08C35.2446 126.78 35.0546 126.76 34.8846 126.76C34.7246 126.76 34.5746 126.79 34.4246 126.81C34.1946 126.85 33.9646 126.87 33.7446 126.87C32.2746 126.87 31.6346 125.62 31.2446 124.51C30.6546 123.28 29.5946 121.08 27.9546 120.78C27.9046 120.78 27.8646 120.78 27.8146 120.78C26.5146 120.78 26.0546 119.48 25.7446 118.63C25.6146 118.27 25.4746 117.87 25.3246 117.68C25.1346 117.43 25.0646 117.1 25.1546 116.8C25.6046 115.24 25.6346 113.94 25.2346 113.42C25.1746 113.33 24.9946 113.1 24.3746 113.1C24.2746 113.1 24.1646 113.1 24.0446 113.12C24.0046 113.12 23.9746 113.12 23.9346 113.12C23.5446 113.12 23.1946 112.9 23.0246 112.54C22.6446 111.71 22.4946 110.73 22.3446 109.77C22.0546 107.86 21.7946 106.68 20.6946 106.41C20.1946 106.29 19.8646 105.81 19.9446 105.3C20.4046 102.14 19.8146 101.94 18.3946 101.46C17.0846 101.01 15.2946 100.4 14.0546 97.73C13.9946 97.6 13.9646 97.46 13.9646 97.31C13.9646 96.93 14.1846 96.5 14.5246 96.33C15.7846 95.71 17.0946 95.06 17.4646 91.81C17.4946 91.53 17.6446 91.28 17.8746 91.11C18.2046 90.87 18.3946 90.46 18.4546 90.18C18.5046 89.97 18.6146 89.78 18.7746 89.63C20.1746 88.42 20.9346 86.63 20.6746 85.19C20.4846 84.14 19.7846 83.39 18.5846 82.95C18.0946 82.77 17.8246 82.24 17.9646 81.74C18.2346 80.79 18.1546 79.92 17.7646 79.4C17.4646 79 16.9646 78.8 16.2646 78.8C16.1146 78.8 15.9646 78.8 15.8046 78.83C15.7646 78.83 15.7346 78.83 15.6946 78.83C15.3746 78.83 15.0746 78.68 14.8846 78.41C14.4846 77.85 13.8546 77.58 13.1946 77.28C12.5146 76.98 11.8146 76.67 11.2946 76.03C11.2546 75.99 11.2246 75.94 11.2046 75.89C11.0546 75.62 10.7546 75.43 10.4046 75.39C10.1346 75.36 9.88463 75.22 9.72463 75.01C9.30463 74.47 8.78463 74.07 8.17463 73.84C7.81463 73.7 7.57463 73.38 7.53463 73C7.42463 71.86 6.57463 71.38 5.17463 70.73C4.97463 70.64 4.78463 70.55 4.60463 70.46C4.25463 70.29 4.04463 69.93 4.04463 69.54C4.05463 68.91 4.13463 68.3 4.21463 67.71C4.47463 65.68 4.67463 64.07 2.46463 62.19C2.29463 62.04 2.17463 61.85 2.13463 61.63C2.03463 61.13 1.48463 60.49 1.01463 60.49C0.54463 60.49 0.12463 60.17 0.0246304 59.71C-0.0753696 59.25 0.13463 58.79 0.55463 58.59C0.82463 58.46 0.97463 58.28 1.03463 58.01C1.12463 57.6 0.96463 57.06 0.64463 56.67C0.40463 56.38 0.35463 55.98 0.50463 55.63C0.65463 55.28 0.99463 55.05 1.37463 55.04C1.56463 55.04 1.73463 55.01 1.89463 54.99C1.93463 54.99 1.96463 54.99 2.00463 54.99C2.44463 54.99 2.83463 55.28 2.96463 55.7C3.01463 55.87 3.06463 56.05 3.11463 56.24C3.38463 57.26 3.63463 58.22 4.78463 58.76C5.21463 58.96 5.44463 59.44 5.33463 59.9C5.20463 60.44 5.56463 60.86 6.80463 61.66C7.17463 61.9 7.35463 62.36 7.22463 62.78C6.92463 63.8 6.98463 64.63 7.39463 65.17C7.72463 65.61 8.28463 65.87 8.90463 65.87C9.52463 65.87 10.0546 65.63 10.3346 65.22C10.7446 64.64 10.5846 63.84 10.3746 63.27C10.3046 63.07 10.2946 62.86 10.3546 62.66L10.4246 62.42C10.5146 62.11 10.5946 61.85 10.6446 61.49C10.6946 61.19 10.8746 60.92 11.1446 60.77C11.5046 60.57 12.0546 60.09 11.7946 59.15C11.7046 58.83 11.7746 58.49 11.9946 58.24C12.1746 58.02 12.3646 57.82 12.5546 57.62C13.1346 56.99 13.6446 56.44 13.8846 55.5C13.9746 55.16 14.2346 54.89 14.5746 54.79C15.1546 54.62 15.7246 54.08 15.8646 53.55C15.9246 53.33 16.0546 53.14 16.2346 53.01C17.4646 52.1 18.1346 51.12 18.8646 49.74C19.0046 49.48 19.2546 49.29 19.5446 49.23C19.9746 49.14 20.5046 49.01 21.0646 48.87C22.6846 48.47 24.5246 48.02 25.8846 48.02C26.0346 48.02 26.1846 48.02 26.3246 48.04C26.6546 48.07 26.9546 48.26 27.1146 48.55C27.3046 48.9 27.6446 48.97 27.8846 48.97C28.2746 48.97 28.8846 48.75 28.9346 48.16C28.8246 47.18 29.9746 46.57 32.5946 45.29L33.2746 44.96C33.4146 44.89 33.5746 44.85 33.7246 44.85C33.9846 44.85 34.2446 44.95 34.4346 45.15C36.0446 46.78 38.0746 47.75 39.8546 47.75C40.9646 47.75 41.9146 47.38 42.6046 46.67C43.5546 45.71 44.0346 44.13 43.9946 42.11C43.9946 41.72 44.2046 41.36 44.5646 41.19C44.7046 41.12 44.8546 41.09 44.9946 41.09C45.2246 41.09 45.4446 41.17 45.6346 41.32C45.7846 41.44 45.9446 41.5 46.1246 41.5C46.5446 41.5 47.1146 41.2 47.5446 40.75C47.7346 40.55 48.0046 40.44 48.2646 40.44C48.4446 40.44 48.6246 40.49 48.7846 40.59C49.5846 41.08 50.2646 41.33 50.7846 41.33C51.9146 41.33 52.5046 39.91 53.2746 37.74C53.5846 36.86 53.9146 35.95 54.3346 35.16C54.4846 34.87 54.7746 34.67 55.1046 34.63C55.1446 34.63 55.1846 34.63 55.2146 34.63C55.5046 34.63 55.7746 34.75 55.9746 34.98C56.2746 35.32 56.7346 35.53 57.2246 35.53C57.6146 35.53 57.9546 35.4 58.1246 35.18C58.2846 34.98 58.3146 34.68 58.2246 34.29C58.1346 33.94 58.2546 33.56 58.5146 33.32C58.8646 33 59.2946 32.72 59.7146 32.46C59.9746 32.29 60.2346 32.13 60.4346 31.97C60.6246 31.82 60.8446 31.75 61.0646 31.75C61.3446 31.75 61.6246 31.87 61.8246 32.1C62.4746 32.86 63.6846 33.64 64.5746 33.64C64.8946 33.64 65.2246 33.56 65.4646 32.96C65.5146 32.82 65.6046 32.7 65.7046 32.6C66.9246 31.46 67.5946 30.42 67.6046 30.1C67.5746 29.84 67.6546 29.6 67.8146 29.39C68.5446 28.47 68.5146 27.48 68.3946 26.63C68.3546 26.31 68.4646 25.99 68.6946 25.77C68.8846 25.59 69.1346 25.49 69.3846 25.49C69.4446 25.49 69.5046 25.49 69.5646 25.51C69.7646 25.55 69.9746 25.57 70.1746 25.57C71.0246 25.57 71.7846 25.25 72.5946 24.9C73.1546 24.66 73.7346 24.42 74.3546 24.28C74.4246 24.26 74.4946 24.26 74.5646 24.26C74.8546 24.26 75.1246 24.38 75.3146 24.6C75.5146 24.83 75.8246 24.96 76.1546 24.96C76.3346 24.96 76.7846 24.91 77.0046 24.49C77.1146 24.28 77.2946 24.12 77.5046 24.03C77.8946 23.87 78.3346 23.79 78.8646 23.79C79.5246 23.79 80.2246 23.91 80.9046 24.03C81.5346 24.14 82.1846 24.26 82.7246 24.26C83.5146 24.26 83.7946 24.03 83.9746 23.68C84.1346 23.38 84.4346 23.18 84.7746 23.15C85.2546 23.11 85.4346 22.94 85.5146 22.81C85.7846 22.43 85.7946 21.63 85.5546 20.72C85.4646 20.36 85.5746 19.98 85.8446 19.73C86.0346 19.56 86.2746 19.46 86.5246 19.46C86.6346 19.46 86.7446 19.48 86.8546 19.52C86.9346 19.55 87.0046 19.56 87.0846 19.56C87.5746 19.56 88.0846 19 88.2046 18.51C88.3146 18.06 88.7146 17.74 89.1746 17.74C89.1846 17.74 89.2046 17.74 89.2146 17.74C89.7646 17.76 90.3146 17.87 90.8546 17.98C91.4246 18.1 92.0246 18.22 92.5746 18.22C93.2546 18.22 94.0546 18.07 94.8946 16.97C94.9746 16.86 95.0846 16.77 95.2046 16.7C96.2746 16.11 97.4546 15.74 98.4946 15.41C100.665 14.73 101.645 14.32 101.715 13.27C101.695 12.66 102.015 12.19 102.645 11.87C102.785 11.8 102.935 11.76 103.095 11.76C103.235 11.76 103.375 11.79 103.505 11.85C104.125 12.13 104.855 12.28 105.515 12.28C106.095 12.28 106.875 12.16 107.345 11.56C107.535 11.32 107.825 11.18 108.135 11.18H108.165C108.625 11.18 109.015 10.97 109.345 10.57C109.895 9.9 110.075 8.96 109.975 8.41C109.965 8.35 109.955 8.29 109.955 8.23C109.955 7.65 109.455 7.39 108.085 6.96C107.605 6.81 107.145 6.67 106.745 6.46C106.315 6.23 106.105 5.73 106.255 5.27C106.365 4.93 106.235 4.65 106.115 4.48C105.905 4.2 105.575 4.02 105.255 4.02C105.135 4.02 105.005 4.05 104.895 4.1C104.765 4.16 104.625 4.19 104.485 4.19C104.195 4.19 103.925 4.07 103.725 3.84C103.435 3.51 103.405 3.02 103.645 2.65C103.785 2.43 103.965 2.22 104.145 2C104.495 1.58 104.665 1.36 104.625 1.16C104.565 0.77 104.725 0.39 105.045 0.17C105.215 0.06 105.415 0 105.605 0C105.785 0 105.965 0.05 106.125 0.14C106.445 0.34 106.875 0.46 107.245 0.46C107.525 0.46 107.885 0.58 108.075 0.79C108.835 1.63 109.715 2.15 110.375 2.15C110.625 2.15 110.995 2.09 111.385 1.55C111.575 1.28 111.875 1.13 112.195 1.13C112.235 1.13 112.285 1.13 112.325 1.13C112.465 1.15 112.595 1.17 112.725 1.2C112.915 1.23 113.095 1.27 113.355 1.28C113.655 1.28 113.925 1.42 114.115 1.66C114.305 1.89 114.585 2.04 114.875 2.06C115.085 2.07 115.295 2.15 115.455 2.29L115.575 2.39C115.965 2.71 116.365 3.05 117.095 3.05C117.485 3.05 117.895 3.28 118.055 3.63C118.635 4.9 118.185 6.43 117.775 7.78C117.595 8.37 117.225 9.61 117.395 9.85C117.395 9.85 117.535 9.98 118.125 9.98C118.425 9.98 118.795 9.95 119.215 9.88C119.265 9.88 119.325 9.87 119.375 9.87C119.685 9.87 119.975 10.01 120.165 10.26C120.385 10.55 120.435 10.94 120.285 11.28C119.855 12.24 119.925 13.26 120.485 14.16C121.135 15.18 122.315 15.83 123.585 15.85C123.865 15.85 124.125 15.97 124.305 16.18C124.635 16.54 125.335 16.79 126.155 16.83C126.365 16.84 126.565 16.92 126.725 17.04C127.055 17.31 127.375 17.43 127.675 17.43C128.815 17.43 130.095 15.6 130.615 13.91C130.735 13.52 131.075 13.25 131.485 13.21C131.625 13.2 131.775 13.19 131.935 13.19C132.785 13.19 133.765 13.38 134.705 13.57C135.615 13.75 136.545 13.93 137.305 13.93C138.215 13.93 138.455 13.67 138.535 13.58C138.825 13.27 138.935 12.61 138.845 11.69C138.835 11.53 138.855 11.36 138.915 11.21C139.135 10.69 139.115 10.17 138.875 9.56C138.725 9.19 138.805 8.77 139.085 8.48C139.845 7.71 140.175 6.78 139.995 5.92C139.845 5.2 139.345 4.63 138.615 4.34C138.315 4.22 138.085 3.96 138.015 3.65C137.935 3.33 138.015 3 138.235 2.76C138.465 2.5 138.645 2.33 138.835 2.22C139.005 2.12 139.185 2.06 139.375 2.06C139.645 2.06 139.915 2.17 140.105 2.38C140.275 2.57 140.535 2.67 140.815 2.67C141.025 2.67 141.215 2.61 141.375 2.5C141.545 2.38 141.745 2.33 141.935 2.33C142.125 2.33 142.325 2.39 142.495 2.5C142.775 2.64 143.025 2.94 143.085 3.24C143.145 3.53 143.405 4.48 144.325 4.48C144.625 4.48 144.955 4.39 145.325 4.21C145.465 4.14 145.615 4.11 145.765 4.11C146.095 4.11 146.425 4.28 146.615 4.57C146.825 4.9 147.105 5.06 147.505 5.06C147.965 5.06 148.505 4.84 148.895 4.48C149.085 4.31 149.325 4.22 149.565 4.22C149.805 4.22 150.045 4.31 150.235 4.48C150.415 4.64 150.605 4.78 150.825 4.89C151.075 5.02 151.255 5.24 151.335 5.51C151.435 5.88 151.545 6.13 151.675 6.44C151.815 6.77 151.775 7.14 151.565 7.43C149.595 10.13 151.735 12.37 154.515 14.8C154.845 15.08 155.145 15.35 155.405 15.59C155.635 15.81 155.755 16.13 155.715 16.44C155.545 17.76 155.845 19.03 156.485 19.75C156.695 19.99 157.045 20.28 157.495 20.28C158.045 20.28 158.675 19.86 159.255 19.08C159.445 18.82 159.745 18.68 160.055 18.68C160.195 18.68 160.345 18.71 160.475 18.77C162.355 19.65 165.045 20.71 167.195 20.71C167.395 20.71 167.615 20.77 167.775 20.88C170.155 22.45 172.225 23.21 174.095 23.21C175.145 23.21 175.985 22.97 176.725 22.76L176.915 22.71C177.005 22.69 177.095 22.67 177.185 22.67C177.595 22.67 177.965 22.92 178.115 23.32C178.495 24.33 178.735 25.21 178.945 26C179.515 28.11 179.675 28.35 180.545 28.35C181.315 28.35 182.555 28.03 184.335 27.38C184.445 27.34 184.565 27.32 184.685 27.32C185.075 27.32 185.445 27.55 185.605 27.94L185.755 28.3C186.005 28.9 186.235 29.46 186.665 30.3C186.895 30.74 186.775 31.28 186.375 31.57C185.965 31.87 185.845 32.22 185.995 32.68C186.215 33.36 186.955 33.94 187.595 33.94C187.955 33.94 188.265 33.77 188.555 33.41C188.745 33.17 189.035 33.04 189.335 33.04C189.355 33.04 189.405 33.04 189.405 33.04C189.575 33.04 189.855 32.72 190.305 31.21C190.495 30.56 190.625 30.13 190.945 29.83C191.135 29.65 191.385 29.55 191.635 29.55C191.745 29.55 191.865 29.57 191.975 29.61C192.525 29.81 193.095 30.07 193.705 30.36C194.785 30.86 196.005 31.43 196.835 31.43C197.175 31.43 197.805 31.43 197.955 29.59C197.985 29.24 198.195 28.94 198.495 28.78C198.635 28.71 198.795 28.67 198.945 28.67C199.125 28.67 199.305 28.72 199.465 28.82C200.295 29.32 200.855 29.38 201.505 29.45C203.235 29.63 204.535 30.04 206.795 33.99C207.045 34.42 206.935 34.97 206.535 35.28C206.015 35.68 205.705 36.27 205.685 36.88C205.685 37.1 205.595 37.31 205.455 37.48C205.215 37.77 205.095 38.18 205.125 38.54C205.155 38.83 205.055 39.12 204.845 39.33L203.835 40.37C203.645 40.57 203.375 40.67 203.115 40.67C202.895 40.67 202.685 40.6 202.505 40.46C202.345 40.34 202.175 40.27 201.975 40.27C201.505 40.27 200.945 40.67 200.875 41.26C200.845 41.54 200.685 41.8 200.455 41.96C200.285 42.08 200.085 42.14 199.875 42.14C199.795 42.14 199.725 42.14 199.655 42.11C199.575 42.09 199.505 42.08 199.445 42.08C199.005 42.08 198.615 42.57 198.075 43.32C197.825 43.66 197.575 44.02 197.285 44.32C197.145 44.46 196.975 44.56 196.785 44.6C195.785 44.82 195.645 45.57 195.705 46.15C195.795 47.08 196.485 48.1 197.365 48.12C197.795 48.13 198.165 48.41 198.295 48.82C198.395 49.15 198.525 49.34 198.785 49.53C199.015 49.7 199.155 49.95 199.185 50.23C199.215 50.53 199.865 51 200.565 51C200.785 51 201.085 50.95 201.255 50.72C201.435 50.48 201.715 50.33 202.005 50.32H202.165C202.335 50.32 202.475 50.33 202.575 50.34C202.975 50.39 203.345 50.67 203.455 51.06C203.505 51.22 203.545 51.41 203.605 51.61C203.885 52.69 204.345 54.5 205.395 54.62C205.435 54.62 205.465 54.63 205.505 54.64C207.335 55.05 208.685 57 209.995 58.88C210.825 60.09 211.695 61.33 212.545 61.94C212.835 62.15 212.995 62.5 212.955 62.86C212.735 64.78 213.745 67.36 215.475 69.29C216.785 70.75 218.305 71.59 219.645 71.59C220.275 71.59 220.885 71.41 221.455 71.04C222.295 69.65 223.255 68.59 223.885 68.37C223.975 68.34 224.065 68.32 224.155 68.32C224.755 68.28 225.125 67.46 225.585 66.29C225.915 65.45 226.225 64.67 226.805 64.18C226.985 64.02 227.225 63.94 227.455 63.94C227.635 63.94 227.815 63.99 227.985 64.09C228.125 64.18 228.255 64.22 228.385 64.22C229.005 64.22 229.815 63.24 230.295 62.65C230.425 62.49 230.615 62.36 230.815 62.3C230.905 62.28 231.065 62.26 231.155 62.26C231.265 62.26 231.435 62.27 231.645 62.29C231.885 62.31 232.195 62.34 232.485 62.34C232.705 62.34 232.825 62.32 232.885 62.31C233.045 62.17 233.245 62.08 233.455 62.06C233.485 62.06 233.525 62.06 233.555 62.06C233.785 62.06 234.015 62.14 234.195 62.29C234.485 62.53 234.765 62.65 235.045 62.65C235.655 62.65 236.185 62.1 236.385 61.55C236.495 61.24 236.615 60.65 236.105 60.22C235.775 59.94 235.665 59.48 235.825 59.08C236.505 57.41 236.315 56.02 233.155 54.7C232.875 54.58 232.665 54.34 232.575 54.05C232.015 52.07 231.055 49.28 229.295 47.97C228.915 47.68 228.785 47.17 228.995 46.74C229.245 46.21 229.735 45.9 230.295 45.9C230.955 45.9 231.555 46.31 232.245 46.79C232.755 47.14 233.445 47.62 233.825 47.62C233.865 47.62 233.905 47.62 233.975 47.54C234.165 47.34 234.435 47.23 234.695 47.23C234.795 47.23 234.895 47.25 234.995 47.28C235.575 47.46 236.125 47.72 236.655 47.98C237.485 48.37 238.265 48.74 239.145 48.84C239.445 48.87 239.715 49.04 239.875 49.3C240.335 50.03 241.205 50.4 242.445 50.4C242.675 50.4 242.895 50.39 243.115 50.37C243.145 50.37 243.185 50.37 243.215 50.37C243.665 50.37 244.065 50.68 244.185 51.12C244.745 53.32 247.385 55.03 249.285 55.03C249.455 55.03 249.625 55.02 249.795 54.99C249.855 54.98 249.915 54.97 249.985 54.97C250.295 54.97 250.595 55.12 250.785 55.37C251.015 55.68 251.045 56.09 250.875 56.43C250.615 56.93 250.665 57.55 250.995 58.09C251.255 58.52 251.655 58.8 252.005 58.8C252.275 58.8 252.545 58.63 252.805 58.3C252.985 58.07 253.265 57.93 253.555 57.92C253.555 57.92 253.575 57.92 253.585 57.92C253.865 57.92 254.135 58.04 254.325 58.25C254.785 58.76 255.865 59.95 256.505 59.95C256.815 59.95 257.115 59.44 257.265 59.14C257.425 58.82 257.735 58.61 258.085 58.59C258.495 58.56 258.915 58.55 259.345 58.55C259.865 58.55 260.395 58.57 260.935 58.59C261.465 58.61 262.005 58.63 262.545 58.63C264.965 58.63 266.855 58.26 268.225 56.43C268.425 56.17 268.725 56.03 269.025 56.03C269.195 56.03 269.375 56.07 269.535 56.17C269.975 56.43 270.145 56.97 269.945 57.44C269.455 58.54 269.465 60.14 270.465 60.93C270.805 61.2 270.935 61.67 270.775 62.07C270.625 62.46 270.255 62.71 269.845 62.71C269.825 62.71 269.775 62.71 269.775 62.71C269.265 62.71 268.805 63.12 268.765 63.56C268.725 63.98 268.415 64.33 268.005 64.43C267.685 64.51 267.315 64.58 266.915 64.66C265.585 64.93 263.375 65.38 263.005 66.19C262.875 66.49 263.045 66.92 263.235 67.26C263.555 67.63 263.845 67.98 264.105 68.29C265.725 70.21 266.215 70.77 266.955 70.77C267.165 70.77 267.415 70.73 267.725 70.66C267.805 70.64 267.885 70.63 267.965 70.63C268.175 70.63 268.395 70.7 268.565 70.83C270.105 71.98 271.235 74.85 271.655 76.02C271.715 76.2 271.735 76.39 271.685 76.58C271.625 76.85 271.665 77.07 271.805 77.27C272.055 77.62 272.615 77.89 273.195 77.94C273.635 77.98 273.995 78.3 274.085 78.73C274.535 80.85 276.505 81.01 277.105 81.01C278.185 81.01 279.215 80.59 279.845 79.88C280.575 79.11 281.285 78.93 281.865 78.78C282.175 78.7 282.425 78.64 282.665 78.49C282.825 78.39 283.015 78.34 283.195 78.34C283.345 78.34 283.505 78.38 283.645 78.45C283.885 78.57 284.185 78.64 284.485 78.64C284.785 78.64 285.295 78.58 285.485 78.15C285.635 77.82 285.945 77.59 286.315 77.56C286.345 77.56 286.375 77.56 286.405 77.56C286.735 77.56 287.045 77.72 287.235 78C287.685 78.67 289.465 80.26 290.575 80.26C290.815 80.26 290.995 80.18 291.155 79.99C291.345 79.77 291.625 79.65 291.905 79.65C291.945 79.65 291.975 79.65 292.015 79.65C292.335 79.68 292.625 79.87 292.785 80.16C293.215 80.94 293.965 81.42 295.115 81.67C295.485 81.75 295.785 82.04 295.875 82.41C296.265 84 297.035 84.98 297.865 84.98C298.345 84.98 298.875 84.67 299.335 84.12C299.485 83.94 299.695 83.82 299.915 83.78C300.245 83.72 300.575 83.69 300.905 83.69C302.525 83.69 303.725 84.48 304.785 85.19C305.815 85.87 306.785 86.51 308.145 86.51C308.365 86.51 308.595 86.49 308.845 86.46C308.895 86.46 308.945 86.45 308.985 86.45C309.455 86.45 309.865 86.78 309.965 87.24C310.045 87.61 310.225 87.96 310.505 88.29C310.795 88.62 310.835 89.11 310.595 89.48C309.635 91 311.115 95.28 312.515 97.43C312.675 97.68 312.725 97.99 312.625 98.28C312.565 98.46 312.675 99.2 313.265 100.01C313.525 100.37 314.255 101.21 315.245 101.21C315.405 101.21 315.565 101.19 315.735 101.14C315.815 101.12 315.905 101.11 315.995 101.11C316.315 101.11 316.615 101.26 316.805 101.53L316.935 101.72C317.485 102.51 317.995 103.11 319.015 103.11C319.315 103.11 319.655 103.05 320.025 102.95C320.115 102.92 320.215 102.91 320.315 102.91C320.565 102.91 320.805 103 320.985 103.17C321.245 103.41 321.365 103.76 321.295 104.1C321.095 105.09 321.575 106.26 322.035 107.39C322.455 108.42 322.895 109.49 322.875 110.55C322.875 110.63 322.865 110.71 322.835 110.79C322.735 111.17 322.865 111.58 323.175 111.84C323.405 112.03 323.545 112.31 323.545 112.61C323.545 112.91 323.425 113.19 323.195 113.38C322.565 113.92 321.795 114.38 321.055 114.82C320.615 115.09 320.175 115.34 319.795 115.61C319.625 115.73 319.425 115.79 319.225 115.79C319.095 115.79 318.965 115.76 318.835 115.71C317.795 115.27 316.865 115.07 315.905 115.07C315.305 115.07 314.745 115.15 314.305 115.22C313.885 115.28 313.465 115.34 313.015 115.34C312.295 115.34 311.625 115.17 310.825 114.8C310.725 114.76 310.575 114.73 310.435 114.73C309.995 114.73 309.515 115 309.105 115.47C308.575 116.09 308.265 116.94 308.355 117.55C308.415 117.92 308.255 118.29 307.945 118.51C307.595 118.76 306.995 119.68 306.515 120.42C305.515 121.96 304.725 123.17 303.625 123.17C303.545 123.17 303.385 123.15 303.305 123.13C303.265 123.13 303.205 123.11 303.145 123.11C302.865 123.11 302.575 123.26 302.375 123.5C302.195 123.72 302.115 123.99 302.155 124.23C302.645 128.29 298.495 129.34 295.465 130.1C293.485 130.6 291.435 131.12 291.345 132.1C291.315 132.41 291.145 132.69 290.885 132.86C290.865 132.87 289.085 134.02 289.625 135.13C289.665 135.22 289.695 135.31 289.715 135.41C289.855 136.26 289.555 137.14 289.265 137.99C288.975 138.85 288.675 139.73 288.845 140.48C288.895 140.7 288.875 140.94 288.775 141.14C288.385 141.95 288.155 143.19 287.925 144.39C287.435 147.04 286.875 150.03 284.225 150.49C284.165 150.49 284.115 150.5 284.055 150.5C283.985 150.5 283.915 150.5 283.845 150.48C283.345 150.37 282.855 150.32 282.395 150.32C278.075 150.32 277.175 155.09 277.005 156.55C276.945 157.04 276.545 157.41 276.045 157.43C272.875 157.55 271.565 158.84 270.055 160.33C268.645 161.72 267.045 163.31 263.885 163.84C263.845 163.84 263.805 163.85 263.765 163.85C263.605 163.85 263.565 163.85 263.285 164.3C263.025 164.72 262.665 165.29 261.905 165.57C261.795 165.61 261.675 165.63 261.555 165.63C261.535 165.63 261.515 165.63 261.495 165.63C259.135 165.5 258.045 164.64 257.315 164.08C256.965 163.8 256.805 163.69 256.675 163.69C256.365 163.69 255.585 164.03 253.635 165.64C253.455 165.79 253.225 165.87 252.995 165.87C252.765 165.87 252.535 165.79 252.345 165.63C251.155 164.61 247.535 161.5 244.875 161.5C244.315 161.5 243.845 161.64 243.425 161.92C242.635 162.93 241.125 164.23 240.225 164.5C239.835 164.62 239.555 164.95 239.515 165.36C239.225 167.07 238.005 168.38 236.835 169.66C235.475 171.13 234.185 172.53 234.425 174.22C234.475 174.57 234.335 174.92 234.055 175.14C233.715 175.41 233.325 175.75 233.085 176.17C232.905 176.48 232.575 176.67 232.215 176.67C232.165 176.67 232.115 176.67 232.065 176.66C231.655 176.6 231.335 176.3 231.235 175.9C230.695 173.58 230.055 172.4 229.335 172.4C229.065 172.4 228.705 172.52 228.295 172.76C228.145 172.85 227.975 172.89 227.805 172.89C227.695 172.89 227.595 172.87 227.485 172.84C227.345 172.79 227.155 172.76 226.965 172.76C226.585 172.76 226.245 172.87 226.095 173.04C225.905 173.26 225.635 173.38 225.345 173.38C224.995 173.38 224.555 173.28 223.815 173.04C223.585 172.96 223.395 172.81 223.265 172.6C222.785 171.8 222.155 171.43 221.275 171.43C221.045 171.43 220.785 171.46 220.525 171.51C220.465 171.52 220.395 171.53 220.335 171.53C220.105 171.53 219.885 171.45 219.705 171.31C219.475 171.12 219.345 170.84 219.335 170.55C219.315 169.51 218.975 168.04 218.255 168.04C218.155 168.04 218.045 168.06 217.925 168.09C217.675 168.17 217.405 168.21 217.125 168.21C215.935 168.21 214.955 167.47 214.085 166.81C213.515 166.38 212.875 165.9 212.465 165.9C212.395 165.9 212.185 165.9 211.835 166.3C211.645 166.52 211.365 166.64 211.085 166.64C210.975 166.64 210.855 166.62 210.745 166.58C210.485 166.49 210.205 166.44 209.905 166.44C209.105 166.44 208.255 166.79 207.715 167.35C207.405 167.67 207.035 168.22 207.045 169C207.045 169.26 206.955 169.51 206.775 169.7L206.495 170C206.095 170.43 205.635 170.92 205.075 171.41C204.885 171.58 204.655 171.66 204.415 171.66C204.175 171.66 203.935 171.57 203.745 171.4C203.515 171.19 203.265 171.15 203.085 171.15C202.875 171.15 202.665 171.21 202.475 171.33C202.315 171.43 202.135 171.48 201.955 171.48C201.885 171.48 201.815 171.48 201.735 171.46C200.205 171.12 198.485 170.99 196.665 170.85C192.325 170.52 187.835 170.17 185.095 166.99C184.875 166.73 184.795 166.38 184.895 166.05C184.975 165.79 184.895 165.48 184.715 165.23C184.525 164.98 184.255 164.82 183.985 164.82C183.695 164.82 183.415 164.7 183.225 164.48C183.015 164.24 182.595 163.99 182.215 163.98C181.825 163.97 181.475 163.73 181.325 163.37C181.195 163.06 180.905 162.83 180.575 162.78C180.185 162.72 179.865 162.43 179.755 162.05C179.675 161.77 179.475 161.01 178.105 161.01C176.735 161.01 175.155 161.76 174.625 162.44C174.435 162.69 174.135 162.82 173.835 162.82C173.755 162.82 173.665 162.81 173.585 162.79C171.715 162.31 169.805 161.22 168.725 160.01C168.535 159.79 168.275 159.68 167.995 159.68C167.955 159.68 167.915 159.68 167.875 159.68C167.665 159.7 167.465 159.72 167.275 159.72C165.065 159.72 163.635 158.14 162.125 156.47C162.105 156.44 162.075 156.42 162.055 156.39C161.755 155.97 161.345 155.72 160.975 155.72C160.865 155.72 160.755 155.74 160.645 155.79C160.515 155.85 160.385 155.87 160.245 155.87C160.155 155.87 160.055 155.86 159.965 155.83C159.075 155.57 158.245 155.06 157.445 154.57C156.285 153.86 155.185 153.19 153.905 153.19C153.675 153.19 153.445 153.21 153.215 153.26C153.155 153.27 153.095 153.28 153.025 153.28C152.895 153.28 152.765 153.25 152.645 153.2C152.475 153.13 152.305 153.09 152.155 153.09C151.495 153.09 150.995 153.78 150.865 154.42C150.775 154.87 150.395 155.2 149.935 155.23C149.325 155.26 148.725 155.47 148.165 155.68C148.045 155.73 147.925 155.75 147.805 155.75C147.645 155.75 147.485 155.71 147.335 155.63C147.075 155.49 146.895 155.25 146.825 154.97C146.265 152.52 143.385 152.13 142.515 152.06C142.235 152.04 141.965 151.9 141.795 151.67C141.375 151.13 140.695 150.82 139.915 150.82C139.205 150.82 138.545 151.08 138.125 151.51C137.805 151.84 137.655 152.25 137.675 152.74C137.675 152.93 137.635 153.12 137.535 153.29C136.725 154.66 136.945 156.27 137.185 157.98C137.315 158.92 137.445 159.89 137.395 160.83C137.385 161.1 137.255 161.35 137.055 161.53C136.645 161.9 136.625 162.64 136.775 163.03C136.895 163.34 136.845 163.69 136.645 163.96C135.575 165.44 135.975 166.94 136.435 168.09C136.585 168.46 136.505 168.88 136.225 169.16C136.035 169.36 135.775 169.47 135.505 169.47C135.385 169.47 135.275 169.45 135.155 169.41L134.735 169.25C133.505 168.79 131.645 168.09 130.245 168.09C129.015 168.09 128.755 168.59 128.715 169.45C128.575 171.52 127.345 173 126.155 174.44C124.535 176.4 123.125 178.1 124.185 181.19C124.335 181.62 124.175 182.09 123.795 182.34C123.715 182.39 123.555 182.47 123.465 182.5C123.365 182.53 123.255 182.55 123.155 182.55C122.965 182.55 122.775 182.5 122.615 182.39C122.365 182.22 122.195 181.95 122.165 181.65C122.115 181.14 121.675 180.59 121.105 180.59C121.075 180.59 121.045 180.59 121.015 180.59C120.685 180.59 120.325 180.44 120.135 180.19C119.935 179.92 119.535 179.76 119.075 179.76C118.615 179.76 118.125 179.93 117.785 180.24C117.595 180.41 117.365 180.49 117.125 180.49C116.975 180.49 116.815 180.46 116.675 180.38C116.155 180.12 115.645 179.96 115.135 179.91C114.825 179.88 114.545 179.7 114.385 179.43C113.835 178.5 113.225 177.97 112.715 177.97C112.415 177.97 112.155 178.17 111.995 178.34C111.465 178.88 111.155 179.84 111.185 180.84C111.185 181.12 111.085 181.39 110.885 181.59C110.695 181.77 110.445 181.87 110.185 181.87C110.165 181.87 110.125 181.87 110.125 181.87C109.585 181.87 108.955 182.25 108.795 182.56C108.625 182.89 108.275 183.1 107.905 183.1C107.865 183.1 107.715 183.09 107.675 183.09C107.375 183.09 107.095 183.23 106.915 183.46C106.745 183.68 106.495 183.81 106.225 183.84C106.195 183.84 106.165 183.84 106.125 183.84L106.325 183.85Z" fill="#242424" stroke="none"/>
</svg>